<?xml version="1.0" standalone="no"?>
<!DOCTYPE svg PUBLIC "-//W3C//DTD SVG 20010904//EN"
 "http://www.w3.org/TR/2001/REC-SVG-20010904/DTD/svg10.dtd">
<svg version="1.0" xmlns="http://www.w3.org/2000/svg"
 width="1050.000000pt" height="600.000000pt" viewBox="0 0 1050.000000 600.000000"
 preserveAspectRatio="xMidYMid meet">

<g transform="translate(0.000000,600.000000) scale(0.100000,-0.100000)"
fill="#000000" stroke="none">
<path d="M3597 5433 c-64 -37 -115 -68 -114 -69 2 -2 36 6 77 17 41 11 111 23
154 27 l79 7 -39 42 -39 42 -118 -66z"/>
<path d="M7112 5361 c-15 -18 -20 -34 -16 -50 6 -27 40 -61 60 -61 65 0 99 83
49 120 -32 24 -68 21 -93 -9z"/>
<path d="M7830 5137 c-192 -134 -203 -143 -150 -114 25 14 109 56 186 95 133
67 141 72 137 96 -3 14 -10 26 -17 25 -6 0 -76 -46 -156 -102z"/>
<path d="M1931 4991 c-17 -11 -21 -51 -7 -67 29 -31 91 11 76 51 -8 22 -46 31
-69 16z"/>
<path d="M3541 4801 c-28 -24 -24 -48 12 -74 l27 -21 28 21 c35 26 38 43 12
71 -26 27 -50 28 -79 3z"/>
<path d="M4371 4796 c-12 -14 -5 -26 16 -26 15 0 18 26 4 34 -5 3 -14 0 -20
-8z"/>
<path d="M6122 4408 c-18 -18 -15 -66 6 -77 43 -23 91 27 65 68 -13 20 -54 26
-71 9z"/>
<path d="M8507 4352 c-10 -10 -17 -26 -17 -35 0 -21 27 -47 50 -47 22 0 50 26
50 46 0 18 -36 54 -53 54 -8 0 -21 -8 -30 -18z"/>
<path d="M3135 3900 c-8 -27 1 -40 30 -40 25 0 38 21 29 45 -9 22 -51 19 -59
-5z"/>
<path d="M1990 3463 c-51 -19 -66 -77 -30 -113 41 -41 110 -10 110 48 0 15 -4
32 -8 38 -7 10 -47 35 -54 33 -2 0 -10 -3 -18 -6z"/>
<path d="M9965 3287 c-48 -24 -48 -107 -1 -122 44 -14 52 -13 76 10 32 30 32
66 0 100 -25 26 -42 29 -75 12z"/>
<path d="M1660 3016 c0 -8 4 -17 9 -20 11 -7 33 18 24 27 -12 12 -33 7 -33 -7z"/>
<path d="M4707 2673 c-4 -3 -7 -13 -7 -20 0 -8 -14 -27 -31 -42 -30 -28 -31
-30 -19 -67 19 -59 24 -67 60 -88 l33 -20 -6 42 c-7 40 7 69 19 38 5 -12 8
-12 24 4 14 14 33 19 74 19 31 0 59 2 64 5 5 3 9 21 10 41 1 29 -2 35 -18 35
-11 0 -20 7 -20 15 0 8 -9 15 -20 15 -11 0 -20 5 -20 11 0 7 -10 9 -24 5 -14
-3 -28 -2 -31 4 -7 11 -78 14 -88 3z"/>
<path d="M5026 2509 c-23 -63 -75 -305 -70 -321 9 -30 19 -11 39 70 l17 72 44
0 c32 0 44 4 44 15 0 10 -10 15 -33 15 -19 0 -36 2 -39 5 -3 3 2 35 10 70 12
50 13 68 4 77 -9 9 -13 8 -16 -3z"/>
<path d="M9402 2338 c-7 -7 -12 -21 -12 -33 0 -29 19 -45 52 -45 36 0 56 36
39 69 -13 23 -59 29 -79 9z"/>
<path d="M439 2215 c-2 -17 -5 -34 -9 -37 -1 -2 -4 -12 -6 -23 -6 -26 -9 -35
-21 -65 -6 -14 -7 -26 -3 -28 4 -1 40 15 81 37 63 34 97 43 234 67 88 16 153
30 145 31 -18 3 -391 33 -408 33 -7 0 -13 -7 -13 -15z"/>
<path d="M9680 1944 c-63 -7 -125 -13 -138 -13 -19 -1 -22 -5 -16 -23 3 -13 8
-24 9 -26 1 -1 74 15 161 37 170 41 167 46 -16 25z"/>
<path d="M5325 1837 c-2 -6 -8 -25 -13 -42 l-9 -30 -103 -3 -103 -3 -32 31
-33 32 -61 -46 c-64 -47 -126 -74 -232 -101 -35 -9 -65 -18 -67 -20 -2 -2 13
-67 33 -146 l37 -144 -151 -605 c-84 -332 -150 -612 -148 -622 5 -17 -51 -18
-1229 -18 -1221 0 -1234 0 -1254 -20 -25 -25 -25 -35 0 -60 20 -20 33 -20
3628 -20 3484 0 3609 1 3625 18 22 24 21 45 -1 65 -14 13 -39 17 -105 17 -48
0 -87 3 -87 8 0 4 9 44 20 90 11 46 20 85 20 88 0 2 -61 4 -135 4 -74 0 -135
-2 -135 -4 0 -3 9 -42 20 -88 11 -46 20 -86 20 -90 0 -5 -149 -8 -330 -8
l-331 0 21 28 c11 15 36 90 56 167 47 189 67 253 103 323 17 33 28 62 24 65
-3 3 5 8 18 11 13 3 42 9 64 14 l40 9 -71 21 c-39 12 -78 22 -86 22 -8 0 -22
-18 -31 -40 -8 -22 -22 -40 -30 -40 -15 0 -77 -88 -127 -177 -13 -24 -25 -41
-27 -40 -6 6 37 119 61 164 14 24 23 49 21 56 -3 7 16 28 41 47 96 74 95 72
44 66 -115 -12 -128 -17 -141 -49 -7 -17 -32 -53 -56 -79 -52 -59 -91 -135
-129 -250 -15 -49 -33 -88 -39 -88 -5 0 -46 12 -90 27 -66 22 -99 27 -187 27
-58 1 -109 -2 -113 -5 -3 -4 1 -44 11 -89 18 -91 11 -142 -24 -174 -18 -15
-112 -16 -1302 -16 -706 0 -1285 1 -1286 3 -2 1 6 39 17 82 12 44 107 430 213
857 152 611 190 778 179 782 -8 3 -15 0 -18 -7z m-52 -204 c-44 -178 -42 -173
-63 -173 -24 0 -25 -5 5 54 28 56 29 54 -45 151 l-49 65 88 0 89 0 -25 -97z
m-286 -36 l91 -68 -13 -32 c-13 -31 -14 -32 -88 -35 -87 -3 -82 -9 -92 108 -4
41 -9 83 -12 94 -6 23 -4 22 114 -67z m43 -172 c0 -2 -27 -62 -59 -132 -45
-98 -64 -129 -80 -131 -26 -4 -26 10 0 68 17 38 19 56 14 123 l-7 77 66 0 c36
0 66 -2 66 -5z m188 -12 c-3 -10 -18 -71 -33 -135 l-29 -118 -38 0 c-21 0 -55
7 -76 16 -31 13 -34 17 -20 25 9 5 40 49 69 97 28 48 58 97 66 110 17 28 68
32 61 5z m-454 -135 c-8 -29 -36 -89 -30 -66 3 9 8 33 12 52 3 20 11 36 16 36
5 0 6 -10 2 -22z m386 -150 c-1 -2 -16 -61 -34 -133 l-32 -130 -130 -3 c-100
-2 -139 1 -171 13 -24 9 -43 18 -43 19 0 1 13 29 28 62 16 32 39 85 53 116
l24 58 153 0 c83 0 152 -1 152 -2z m-80 -308 c0 -6 -14 -67 -31 -135 l-31
-125 -214 0 c-189 0 -214 2 -214 16 0 14 19 94 51 217 l10 37 214 0 c140 0
215 -4 215 -10z m-74 -307 c-20 -69 -88 -352 -88 -370 l0 -23 -223 0 -222 0
51 205 51 205 218 0 c203 0 218 -1 213 -17z"/>
<path d="M4850 960 c0 -11 7 -20 15 -20 8 0 15 9 15 20 0 11 -7 20 -15 20 -8
0 -15 -9 -15 -20z"/>
<path d="M3430 1665 c-19 -14 -41 -37 -48 -52 -16 -30 -10 -84 13 -119 21 -33
37 -31 25 2 -13 33 -2 53 16 29 12 -16 14 -17 20 -2 5 13 20 17 70 17 52 0 67
4 84 22 11 12 20 27 20 33 0 19 -97 86 -132 91 -25 4 -41 -1 -68 -21z"/>
<path d="M8532 1518 c-16 -16 -15 -33 3 -48 14 -12 14 -15 0 -30 -19 -21 -19
-35 1 -54 14 -15 14 -17 0 -32 -22 -21 -20 -40 6 -58 18 -13 52 -16 168 -16
116 0 150 3 168 16 26 18 28 37 6 58 -14 15 -14 17 0 32 20 20 20 38 1 54 -14
11 -14 15 2 32 13 15 15 23 7 36 -10 15 -34 17 -180 20 -123 2 -173 -1 -182
-10z"/>
<path d="M3045 1515 c-5 -2 -22 -6 -37 -9 -15 -4 -44 -21 -64 -38 -139 -122
-172 -377 -76 -582 78 -168 278 -303 527 -359 111 -25 316 -40 399 -28 39 5
98 13 131 16 148 16 295 67 295 104 0 27 -21 41 -59 41 -29 0 -39 6 -52 29
l-17 29 -313 6 c-312 7 -546 28 -561 50 -16 24 -20 144 -8 244 6 59 14 131 15
160 2 29 15 77 29 107 24 52 24 57 10 98 -30 88 -144 157 -219 132z"/>
<path d="M23 1035 c-17 -19 -16 -43 2 -62 19 -19 56 -11 72 15 10 16 8 23 -8
41 -23 24 -48 27 -66 6z"/>
<path d="M6979 847 c-27 -18 -55 -58 -75 -105 -1 -1 -13 2 -26 9 -37 16 -80
-10 -123 -74 l-36 -52 26 -22 c31 -27 40 -28 101 -7 25 8 53 13 62 9 8 -3 19
0 23 6 11 18 29 1 30 -29 1 -27 1 -27 15 6 17 40 5 101 -28 134 -17 17 -18 22
-7 30 24 16 78 38 95 38 21 0 84 -63 84 -85 0 -10 -12 -44 -27 -77 -24 -55
-25 -61 -13 -99 15 -44 57 -83 103 -94 48 -12 106 42 92 86 -4 12 -28 45 -54
73 -46 51 -48 55 -54 132 -6 74 -9 81 -42 112 -43 40 -95 43 -146 9z"/>
<path d="M9666 674 c-9 -8 -16 -24 -16 -34 0 -20 25 -50 41 -50 26 0 49 23 49
48 0 49 -42 69 -74 36z"/>
<path d="M958 469 c-21 -12 -24 -59 -6 -77 7 -7 21 -12 33 -12 43 0 61 53 29
84 -18 18 -32 20 -56 5z"/>
</g>
</svg>
